<svg xmlns="http://www.w3.org/2000/svg" width="121.899" height="36.752" xmlns:v="https://vecta.io/nano"><defs><linearGradient id="A" x1=".315" y1=".335" x2="1" y2=".338"><stop offset="0" stop-color="#b600ee"/><stop offset="1" stop-color="#9400ee"/></linearGradient><linearGradient id="B" x1=".625" y1=".578" x2=".092" y2=".565"><stop offset="0" stop-color="#ff5b64"/><stop offset="1" stop-color="#ff9300"/></linearGradient><linearGradient id="C" x1="93.552" y1="61.769" x2="92.542" y2="61.769"><stop offset="0" stop-color="#ff5161"/><stop offset="1" stop-color="#ff3761"/></linearGradient></defs><g fill="#f8f8f9"><path d="M62.698 21.156l4.956-12.4h4.706l-7.772 19.478h-3.73l-7.83-19.482h4.719zm21.412 4.679c-1.591 1.556-3.733 2.418-5.958 2.4a7.91 7.91 0 0 1-5.655-2.109 7.37 7.37 0 0 1-2.228-5.644c-.11-2.111.703-4.165 2.228-5.628a8.15 8.15 0 0 1 10.624-.224 6.46 6.46 0 0 1 2.214 5.141v2.241H74.408a2.99 2.99 0 0 0 1.318 2 4.14 4.14 0 0 0 2.452.778 4.79 4.79 0 0 0 3.546-1.489zm-4.02-8.884a3.15 3.15 0 0 0-2.1-.725c-.821-.004-1.622.26-2.28.751-.667.478-1.102 1.215-1.2 2.03h6.591c-.049-.794-.415-1.534-1.015-2.056zm37.592 10.567a2.48 2.48 0 1 1 1.74.712c-.653.012-1.283-.245-1.74-.712zm-26.838-7.509v-6.762h-4.178v14.987h4.178z"/><path d="M98.318 14.67a5.27 5.27 0 0 0-3.954-1.674c-1.318 0-3.638.857-3.638 4.6h0c.089-.136.189-.264.3-.382.577-.586 1.366-.915 2.188-.91 1.687 0 2.531 1.16 2.531 3.453v8.479h4.429a1.04 1.04 0 0 1-.3-.791v-8.32a6.16 6.16 0 0 0-1.555-4.455zm7.54 5.339v-6.762h-4.178v14.987h4.178z"/><path d="M113.358 14.67a5.27 5.27 0 0 0-3.954-1.674c-1.318 0-3.638.857-3.638 4.6h0c.089-.136.189-.264.3-.382.577-.586 1.366-.915 2.188-.91 1.687 0 2.531 1.16 2.531 3.453v8.479h4.5a1.03 1.03 0 0 1-.316-.791v-8.32c.08-1.64-.499-3.244-1.608-4.455z"/></g><path d="M11.534 6.301z" fill="#b008ff"/><path d="M20.813,4.178A8.278,8.278,0,0,0,13.748,0h0L0,.079,5.958,11.2a8.027,8.027,0,0,0,.633,1.226L13.564,25.3l7.474-12.667a8.489,8.489,0,0,0-.224-8.462Z" fill="url(#A)"/><path d="M38.422 16.41c-1.437.435-5.839 1.081-10.255 2-9.425 2.017-10.215 5.022-10.861 5.984l-.171.3h0c-1.966 3.931-.54 8.713 3.258 10.925s8.661 1.094 11.11-2.555h0l12-20.45a8.24 8.24 0 0 1-5.075 3.8z" fill="url(#B)"/><path d="M29.341 3.954h0l-.066.079h0z" fill="#b008ff"/><path d="M40.611 1.133C36.71-1.133 31.714.117 29.341 3.954h0c-.01.039-.01.08 0 .119v.092h0L17.478 24.332c.646-.962 1.463-3.954 10.861-5.984 4.416-.923 8.818-1.569 10.255-2 2.042-.569 3.793-1.891 4.9-3.7.014-.038.014-.081 0-.119v-.092h0a8.32 8.32 0 0 0-2.887-11.3z" fill="url(#C)"/><path d="M17.307 24.398c-.05.104-.107.204-.171.3z" fill="#00d9ff"/></svg>