<svg class="icon icon--discord" xmlns="http://www.w3.org/2000/svg" viewBox="0 0 24 24"><path d="M21,5.53a10.16,10.16,0,0,0-5.77-2.16L15,3.7A13.77,13.77,0,0,1,20.1,6.31,16.83,16.83,0,0,0,9.76,4.38l-.35,0A15.49,15.49,0,0,0,4.75,5.71c-.76.35-1.22.6-1.22.6A14,14,0,0,1,8.94,3.62l-.21-.25A10.16,10.16,0,0,0,3,5.53a27.49,27.49,0,0,0-3,12,7.45,7.45,0,0,0,6.27,3.12s.76-.92,1.37-1.71A6.36,6.36,0,0,1,4.05,16.5l.57.35.09.06.08.05h0l.08,0a11,11,0,0,0,1.5.7,17.42,17.42,0,0,0,3,.89,14.55,14.55,0,0,0,5.32,0,13.93,13.93,0,0,0,3-.89,11.33,11.33,0,0,0,2.37-1.21A6.49,6.49,0,0,1,16.36,19c.61.78,1.35,1.66,1.35,1.66A7.51,7.51,0,0,0,24,17.51,27.49,27.49,0,0,0,21,5.53ZM8.16,15.6a2.21,2.21,0,0,1-2.1-2.28A2.2,2.2,0,0,1,8.16,11a2.18,2.18,0,0,1,2.09,2.29A2.19,2.19,0,0,1,8.16,15.6Zm7.5,0a2.21,2.21,0,0,1-2.1-2.28A2.2,2.2,0,0,1,15.66,11a2.19,2.19,0,0,1,2.09,2.29A2.19,2.19,0,0,1,15.66,15.6Z"/></svg>
