<svg class="icon icon--whatsapp" xmlns="http://www.w3.org/2000/svg" viewBox="0 0 24 24"><path d="M17.47,14.38c-.3-.15-1.76-.87-2-1s-.47-.14-.67.15-.77,1-.94,1.17-.35.22-.64.07a8,8,0,0,1-2.39-1.47,9,9,0,0,1-1.66-2.06.44.44,0,0,1,.13-.61,6.26,6.26,0,0,0,.45-.52,1.9,1.9,0,0,0,.3-.49.53.53,0,0,0,0-.52C9.92,9,9.33,7.52,9.08,6.92s-.49-.5-.67-.51H7.84a1.07,1.07,0,0,0-.79.37A3.36,3.36,0,0,0,6,9.25a5.82,5.82,0,0,0,1.21,3.08,13.31,13.31,0,0,0,5.08,4.48,17.33,17.33,0,0,0,1.69.63,4.25,4.25,0,0,0,1.87.12,3.08,3.08,0,0,0,2-1.42A2.39,2.39,0,0,0,18,14.73C18,14.6,17.77,14.53,17.47,14.38Z"/><path d="M20.46,3.49a11.89,11.89,0,0,0-20.3,8.4,11.9,11.9,0,0,0,1.58,5.95L.06,24l6.3-1.65A11.9,11.9,0,0,0,23.94,11.9,11.8,11.8,0,0,0,20.46,3.49ZM12.05,21.78a10,10,0,0,1-5.4-1.59l-3.74,1,1-3.64a10,10,0,0,1-1.75-5.64,9.89,9.89,0,1,1,9.89,9.89Z"/></svg>
